<svg id="visual" viewBox="0 0 900 600" width="900" height="600" xmlns="http://www.w3.org/2000/svg" xmlns:xlink="http://www.w3.org/1999/xlink" version="1.1"><path d="M0 85L9.3 89C18.7 93 37.3 101 56.2 107C75 113 94 117 112.8 125C131.7 133 150.3 145 169 145C187.7 145 206.3 133 225 119C243.7 105 262.3 89 281.2 92C300 95 319 117 337.8 125C356.7 133 375.3 127 394 125C412.7 123 431.3 125 450 130C468.7 135 487.3 143 506.2 143C525 143 544 135 562.8 128C581.7 121 600.3 115 619 115C637.7 115 656.3 121 675 115C693.7 109 712.3 91 731.2 85C750 79 769 85 787.8 101C806.7 117 825.3 143 844 149C862.7 155 881.3 141 890.7 134L900 127L900 0L890.7 0C881.3 0 862.7 0 844 0C825.3 0 806.7 0 787.8 0C769 0 750 0 731.2 0C712.3 0 693.7 0 675 0C656.3 0 637.7 0 619 0C600.3 0 581.7 0 562.8 0C544 0 525 0 506.2 0C487.3 0 468.7 0 450 0C431.3 0 412.7 0 394 0C375.3 0 356.7 0 337.8 0C319 0 300 0 281.2 0C262.3 0 243.7 0 225 0C206.3 0 187.7 0 169 0C150.3 0 131.7 0 112.8 0C94 0 75 0 56.2 0C37.3 0 18.7 0 9.3 0L0 0Z" fill="#0ca5fa"></path><path d="M0 211L9.3 206C18.7 201 37.3 191 56.2 197C75 203 94 225 112.8 232C131.7 239 150.3 231 169 224C187.7 217 206.3 211 225 204C243.7 197 262.3 189 281.2 194C300 199 319 217 337.8 226C356.7 235 375.3 235 394 231C412.7 227 431.3 219 450 225C468.7 231 487.3 251 506.2 255C525 259 544 247 562.8 231C581.7 215 600.3 195 619 187C637.7 179 656.3 183 675 183C693.7 183 712.3 179 731.2 184C750 189 769 203 787.8 214C806.7 225 825.3 233 844 240C862.7 247 881.3 253 890.7 256L900 259L900 125L890.7 132C881.3 139 862.7 153 844 147C825.3 141 806.7 115 787.8 99C769 83 750 77 731.2 83C712.3 89 693.7 107 675 113C656.3 119 637.7 113 619 113C600.3 113 581.7 119 562.8 126C544 133 525 141 506.2 141C487.3 141 468.7 133 450 128C431.3 123 412.7 121 394 123C375.3 125 356.7 131 337.8 123C319 115 300 93 281.2 90C262.3 87 243.7 103 225 117C206.3 131 187.7 143 169 143C150.3 143 131.7 131 112.8 123C94 115 75 111 56.2 105C37.3 99 18.7 91 9.3 87L0 83Z" fill="#0093ff"></path><path d="M0 475L9.3 448C18.7 421 37.3 367 56.2 368C75 369 94 425 112.8 442C131.7 459 150.3 437 169 410C187.7 383 206.3 351 225 351C243.7 351 262.3 383 281.2 409C300 435 319 455 337.8 452C356.7 449 375.3 423 394 410C412.7 397 431.3 397 450 404C468.7 411 487.3 425 506.2 438C525 451 544 463 562.8 463C581.7 463 600.3 451 619 432C637.7 413 656.3 387 675 369C693.7 351 712.3 341 731.2 345C750 349 769 367 787.8 391C806.7 415 825.3 445 844 446C862.7 447 881.3 419 890.7 405L900 391L900 257L890.7 254C881.3 251 862.7 245 844 238C825.3 231 806.7 223 787.8 212C769 201 750 187 731.2 182C712.3 177 693.7 181 675 181C656.3 181 637.7 177 619 185C600.3 193 581.7 213 562.8 229C544 245 525 257 506.2 253C487.3 249 468.7 229 450 223C431.3 217 412.7 225 394 229C375.3 233 356.7 233 337.8 224C319 215 300 197 281.2 192C262.3 187 243.7 195 225 202C206.3 209 187.7 215 169 222C150.3 229 131.7 237 112.8 230C94 223 75 201 56.2 195C37.3 189 18.7 199 9.3 204L0 209Z" fill="#007eff"></path><path d="M0 601L9.3 601C18.7 601 37.3 601 56.2 601C75 601 94 601 112.8 601C131.7 601 150.3 601 169 601C187.7 601 206.3 601 225 601C243.7 601 262.3 601 281.2 601C300 601 319 601 337.8 601C356.7 601 375.3 601 394 601C412.7 601 431.3 601 450 601C468.7 601 487.3 601 506.2 601C525 601 544 601 562.8 601C581.7 601 600.3 601 619 601C637.7 601 656.3 601 675 601C693.7 601 712.3 601 731.2 601C750 601 769 601 787.8 601C806.7 601 825.3 601 844 601C862.7 601 881.3 601 890.7 601L900 601L900 389L890.7 403C881.3 417 862.7 445 844 444C825.3 443 806.7 413 787.8 389C769 365 750 347 731.2 343C712.3 339 693.7 349 675 367C656.3 385 637.7 411 619 430C600.3 449 581.7 461 562.8 461C544 461 525 449 506.2 436C487.3 423 468.7 409 450 402C431.3 395 412.7 395 394 408C375.3 421 356.7 447 337.8 450C319 453 300 433 281.2 407C262.3 381 243.7 349 225 349C206.3 349 187.7 381 169 408C150.3 435 131.7 457 112.8 440C94 423 75 367 56.2 366C37.3 365 18.7 419 9.3 446L0 473Z" fill="#0066ff"></path></svg>