<svg id="visual" viewBox="0 0 900 600" width="900" height="600" xmlns="http://www.w3.org/2000/svg" xmlns:xlink="http://www.w3.org/1999/xlink" version="1.1"><rect x="0" y="0" width="900" height="600" fill="#0CA5FA"></rect><path d="M0 417L11.5 410.2C23 403.3 46 389.7 69 397C92 404.3 115 432.7 138.2 435.8C161.3 439 184.7 417 207.8 413.7C231 410.3 254 425.7 277 427.8C300 430 323 419 346 415.8C369 412.7 392 417.3 415.2 420.3C438.3 423.3 461.7 424.7 484.8 421C508 417.3 531 408.7 554 412.8C577 417 600 434 623 442C646 450 669 449 692.2 444.7C715.3 440.3 738.7 432.7 761.8 431.2C785 429.7 808 434.3 831 436.3C854 438.3 877 437.7 888.5 437.3L900 437L900 601L888.5 601C877 601 854 601 831 601C808 601 785 601 761.8 601C738.7 601 715.3 601 692.2 601C669 601 646 601 623 601C600 601 577 601 554 601C531 601 508 601 484.8 601C461.7 601 438.3 601 415.2 601C392 601 369 601 346 601C323 601 300 601 277 601C254 601 231 601 207.8 601C184.7 601 161.3 601 138.2 601C115 601 92 601 69 601C46 601 23 601 11.5 601L0 601Z" fill="#63c3f7"></path><path d="M0 446L11.5 453.5C23 461 46 476 69 485.2C92 494.3 115 497.7 138.2 486C161.3 474.3 184.7 447.7 207.8 436.3C231 425 254 429 277 438C300 447 323 461 346 467.5C369 474 392 473 415.2 479.5C438.3 486 461.7 500 484.8 506.3C508 512.7 531 511.3 554 509.3C577 507.3 600 504.7 623 495.5C646 486.3 669 470.7 692.2 465.8C715.3 461 738.7 467 761.8 466.3C785 465.7 808 458.3 831 459.5C854 460.7 877 470.3 888.5 475.2L900 480L900 601L888.5 601C877 601 854 601 831 601C808 601 785 601 761.8 601C738.7 601 715.3 601 692.2 601C669 601 646 601 623 601C600 601 577 601 554 601C531 601 508 601 484.8 601C461.7 601 438.3 601 415.2 601C392 601 369 601 346 601C323 601 300 601 277 601C254 601 231 601 207.8 601C184.7 601 161.3 601 138.2 601C115 601 92 601 69 601C46 601 23 601 11.5 601L0 601Z" fill="#3a96cd"></path><path d="M0 540L11.5 540.8C23 541.7 46 543.3 69 539.7C92 536 115 527 138.2 528C161.3 529 184.7 540 207.8 535.3C231 530.7 254 510.3 277 510.3C300 510.3 323 530.7 346 532.7C369 534.7 392 518.3 415.2 513.2C438.3 508 461.7 514 484.8 511.5C508 509 531 498 554 496.2C577 494.3 600 501.7 623 507.5C646 513.3 669 517.7 692.2 526C715.3 534.3 738.7 546.7 761.8 544.3C785 542 808 525 831 524.3C854 523.7 877 539.3 888.5 547.2L900 555L900 601L888.5 601C877 601 854 601 831 601C808 601 785 601 761.8 601C738.7 601 715.3 601 692.2 601C669 601 646 601 623 601C600 601 577 601 554 601C531 601 508 601 484.8 601C461.7 601 438.3 601 415.2 601C392 601 369 601 346 601C323 601 300 601 277 601C254 601 231 601 207.8 601C184.7 601 161.3 601 138.2 601C115 601 92 601 69 601C46 601 23 601 11.5 601L0 601Z" fill="#016ba4"></path></svg>